<svg width="153" height="153" viewBox="0 0 153 153" fill="none" xmlns="http://www.w3.org/2000/svg">
<path d="M153 76.5C153 92.6552 147.886 108.396 138.39 121.466C128.894 134.535 115.504 144.264 100.14 149.256C84.7753 154.248 68.2247 154.248 52.8602 149.256C37.4957 144.264 24.106 134.535 14.6102 121.466L39.3661 103.479C45.0636 111.321 53.0974 117.158 62.3161 120.153C71.5348 123.149 81.4652 123.149 90.6839 120.153C99.9026 117.158 107.936 111.321 113.634 103.479C119.331 95.6374 122.4 86.1931 122.4 76.5H153Z" fill="#F4BE37"/>
<path d="M43.4051 145.471C31.7878 139.896 21.7669 131.478 14.272 120.996L39.1632 103.198C43.6601 109.487 49.6727 114.538 56.643 117.882L43.4051 145.471Z" fill="#4CE364"/>
<path d="M52.5627 3.84152C64.0681 0.0510796 76.3091 -0.952917 88.2783 0.91216C100.248 2.77724 111.603 7.45806 121.409 14.5694C131.216 21.6807 139.194 31.0192 144.686 41.8163C150.178 52.6134 153.027 64.5605 153 76.6741L122.4 76.6045C122.416 69.3363 120.707 62.1681 117.411 55.6898C114.116 49.2115 109.33 43.6084 103.446 39.3416C97.5616 35.0748 90.7485 32.2663 83.567 31.1473C76.3855 30.0282 69.0408 30.6306 62.1376 32.9049L52.5627 3.84152Z" fill="#567DF4"/>
<path d="M14.8009 121.727C7.66362 111.99 2.93207 100.702 0.993118 88.7866C-0.945839 76.8708 -0.037152 64.6653 3.64488 53.168C7.32692 41.6707 13.6778 31.208 22.1781 22.6355C30.6785 14.0629 41.0871 7.62385 52.5529 3.84475L62.1317 32.9068C55.2523 35.1743 49.0071 39.0378 43.9069 44.1813C38.8067 49.3248 34.9962 55.6024 32.7869 62.5008C30.5777 69.3992 30.0325 76.7225 31.1959 83.872C32.3592 91.0214 35.1982 97.7941 39.4805 103.636L14.8009 121.727Z" fill="#22215B"/>
</svg>
